<svg width="95" height="18" viewBox="0 0 95 18" fill="none" xmlns="http://www.w3.org/2000/svg">
<path d="M0.912 17V1.28H4.656C5.92 1.28 6.936 1.384 7.704 1.592C8.488 1.8 9.152 2.192 9.696 2.768C10.24 3.344 10.624 4.144 10.848 5.168C11.072 6.176 11.184 7.616 11.184 9.488C11.184 11.344 10.952 12.84 10.488 13.976C10.04 15.112 9.36 15.904 8.448 16.352C7.536 16.784 6.256 17 4.608 17H0.912ZM7.68 13.808C8.048 13.392 8.296 12.824 8.424 12.104C8.568 11.368 8.64 10.376 8.64 9.128C8.64 7.864 8.584 6.872 8.472 6.152C8.36 5.432 8.12 4.864 7.752 4.448C7.4 4.016 6.96 3.744 6.432 3.632C5.904 3.504 5.152 3.44 4.176 3.44H3.408V14.84H4.128C5.056 14.84 5.784 14.776 6.312 14.648C6.856 14.504 7.312 14.224 7.68 13.808ZM13.464 17V14.792H17.04V7.808H13.656V5.6H19.512V14.792H22.896V17H13.464ZM18.144 3.944C17.664 3.944 17.28 3.8 16.992 3.512C16.72 3.208 16.584 2.816 16.584 2.336C16.584 1.856 16.728 1.472 17.016 1.184C17.304 0.895999 17.688 0.751999 18.168 0.751999C18.664 0.751999 19.04 0.895999 19.296 1.184C19.568 1.456 19.704 1.84 19.704 2.336C19.704 2.832 19.568 3.224 19.296 3.512C19.024 3.8 18.64 3.944 18.144 3.944ZM26.904 5.6L26.976 6.248C27.584 5.688 28.176 5.408 28.752 5.408C29.568 5.408 30.184 5.712 30.6 6.32C31.432 5.712 32.168 5.408 32.808 5.408C33.768 5.408 34.448 5.688 34.848 6.248C35.264 6.808 35.472 7.848 35.472 9.368V17H33.024V10.424C33.024 8.952 32.896 8.104 32.64 7.88C32.512 7.752 32.328 7.688 32.088 7.688C31.848 7.688 31.544 7.848 31.176 8.168C31.256 8.536 31.296 9.288 31.296 10.424V13.088H28.872V10.424C28.872 8.968 28.784 8.12 28.608 7.88C28.512 7.752 28.344 7.688 28.104 7.688C27.88 7.688 27.536 7.864 27.072 8.216V17H24.552V5.6H26.904ZM41.184 14.936C41.632 14.936 42.128 14.832 42.672 14.624C43.216 14.416 43.648 14.184 43.968 13.928V12.248C43.008 12.168 42.224 12.128 41.616 12.128C40.288 12.128 39.624 12.624 39.624 13.616C39.624 14.496 40.144 14.936 41.184 14.936ZM40.8 17.264C38.24 17.264 36.96 16.048 36.96 13.616C36.96 12.32 37.368 11.416 38.184 10.904C39.016 10.376 40.16 10.112 41.616 10.112C42.304 10.112 43.088 10.152 43.968 10.232C43.968 9.272 43.832 8.616 43.56 8.264C43.288 7.912 42.816 7.736 42.144 7.736C41.472 7.736 40.688 7.816 39.792 7.976C38.896 8.136 38.208 8.296 37.728 8.456L37.272 6.176C38.952 5.664 40.592 5.408 42.192 5.408C43.792 5.408 44.896 5.76 45.504 6.464C46.128 7.168 46.44 8.36 46.44 10.04V14.912L46.704 17.024L44.232 17.264L43.992 16.16C42.648 16.896 41.584 17.264 40.8 17.264ZM49.416 7.808V5.6H51.36V2.864L53.832 2.624V5.6H58.32V7.808H53.832V12.608C53.832 13.488 53.92 14.112 54.096 14.48C54.272 14.832 54.632 15.008 55.176 15.008C56.12 15.008 57.224 14.856 58.488 14.552L58.896 16.688C57.504 17.056 56.264 17.24 55.176 17.24C53.64 17.24 52.616 16.896 52.104 16.208C51.608 15.52 51.36 14.32 51.36 12.608V7.808H49.416ZM61.176 11.312C61.176 9.376 61.608 7.912 62.472 6.92C63.336 5.912 64.536 5.408 66.072 5.408C67.608 5.408 68.792 5.864 69.624 6.776C70.472 7.672 70.912 8.992 70.944 10.736L70.848 12.512H63.84C63.984 14.24 64.848 15.104 66.432 15.104C67.536 15.104 68.704 14.904 69.936 14.504L70.44 16.592C69.928 16.768 69.264 16.92 68.448 17.048C67.632 17.192 66.96 17.264 66.432 17.264C62.928 17.264 61.176 15.28 61.176 11.312ZM66.168 7.64C65.416 7.64 64.848 7.864 64.464 8.312C64.096 8.744 63.888 9.472 63.84 10.496H68.28C68.28 8.592 67.576 7.64 66.168 7.64ZM79.824 9.752V7.784C79.456 7.72 79.096 7.688 78.744 7.688C77.752 7.688 77.056 7.976 76.656 8.552C76.272 9.128 76.08 10.04 76.08 11.288C76.08 12.536 76.28 13.464 76.68 14.072C77.096 14.664 77.816 14.96 78.84 14.96C79.864 14.96 80.912 14.816 81.984 14.528L82.344 16.832C81.224 17.152 80.024 17.312 78.744 17.312C75.192 17.312 73.416 15.312 73.416 11.312C73.416 9.248 73.816 7.744 74.616 6.8C75.432 5.84 76.784 5.36 78.672 5.36C79.888 5.36 81.056 5.512 82.176 5.816V9.752H79.824ZM87.816 8.6V17H85.344V0.991999H87.816V6.272C89.112 5.696 90.128 5.408 90.864 5.408C92.24 5.408 93.208 5.808 93.768 6.608C94.344 7.408 94.632 8.576 94.632 10.112V17H92.16V10.064C92.16 9.392 92.024 8.84 91.752 8.408C91.496 7.96 91.152 7.736 90.72 7.736C89.936 7.736 88.968 8.024 87.816 8.6Z" fill="white"/>
</svg>
